<?xml version="1.0" encoding="utf-8"?>
<!-- Generator: Adobe Illustrator 23.0.6, SVG Export Plug-In . SVG Version: 6.00 Build 0)  -->
<svg version="1.1" id="Layer_1" xmlns="http://www.w3.org/2000/svg" xmlns:xlink="http://www.w3.org/1999/xlink" x="0px" y="0px"
	 viewBox="0 0 1440 225" style="enable-background:new 0 0 1440 225;" xml:space="preserve">
<style type="text/css">
	.st0{fill-rule:evenodd;clip-rule:evenodd;fill:#FBFBFB;}
</style>
<path class="st0" d="M1440,60.9l-48-16.7c-48-15.9-144-49.2-240-27.3c-96,22-192,98.5-288,120.4c-96,21.2-192-11.4-288,0
	c-96,10.6-192,65.1-288,81.8C192,235,96,213,48,202.4L0,191.8V0.1h48c48,0,144,0,240,0s192,0,288,0s192,0,288,0s192,0,288,0
	s192,0,240,0h48V60.9z"/>
</svg>
